<svg width="20" height="20" viewBox="0 0 20 20" fill="none" xmlns="http://www.w3.org/2000/svg">
<g clip-path="url(#clip0_220_1063)">
<path d="M7.49967 5.83398H4.99967C4.55765 5.83398 4.13372 6.00958 3.82116 6.32214C3.5086 6.6347 3.33301 7.05862 3.33301 7.50065V15.0007C3.33301 15.4427 3.5086 15.8666 3.82116 16.1792C4.13372 16.4917 4.55765 16.6673 4.99967 16.6673H12.4997C12.9417 16.6673 13.3656 16.4917 13.6782 16.1792C13.9907 15.8666 14.1663 15.4427 14.1663 15.0007V12.5007" fill="#E4E6E7"/>
<path d="M7.49967 5.83398H4.99967C4.55765 5.83398 4.13372 6.00958 3.82116 6.32214C3.5086 6.6347 3.33301 7.05862 3.33301 7.50065V15.0007C3.33301 15.4427 3.5086 15.8666 3.82116 16.1792C4.13372 16.4917 4.55765 16.6673 4.99967 16.6673H12.4997C12.9417 16.6673 13.3656 16.4917 13.6782 16.1792C13.9907 15.8666 14.1663 15.4427 14.1663 15.0007V12.5007" stroke="black" stroke-width="1.25" stroke-linecap="round" stroke-linejoin="round"/>
<path d="M7.5 12.4995H10L17.0833 5.4162C17.4149 5.08468 17.6011 4.63505 17.6011 4.1662C17.6011 3.69736 17.4149 3.24772 17.0833 2.9162C16.7518 2.58468 16.3022 2.39844 15.8333 2.39844C15.3645 2.39844 14.9149 2.58468 14.5833 2.9162L7.5 9.99954V12.4995Z" fill="black" stroke="black" stroke-width="1.25" stroke-linecap="round" stroke-linejoin="round"/>
<path d="M13.333 4.16602L15.833 6.66602" stroke="black" stroke-width="1.25" stroke-linecap="round" stroke-linejoin="round"/>
</g>
<defs>
<clipPath id="clip0_220_1063">
<rect width="20" height="20" fill="white"/>
</clipPath>
</defs>
</svg>
